<svg xmlns="http://www.w3.org/2000/svg" width="164.471" height="129.841" viewBox="0 0 164.471 129.841"><defs><style>.a{fill:#bfbfbf;}</style></defs><g transform="translate(0 -2.999)"><path class="a" d="M43.95,83.9A38.95,38.95,0,1,1,82.9,44.95,39,39,0,0,1,43.95,83.9Zm0-69.244A30.294,30.294,0,1,0,74.244,44.95,30.327,30.327,0,0,0,43.95,14.655Z" transform="translate(38.277 22.974)"/><path class="a" d="M151.471,132.84H12.983A13,13,0,0,1,0,119.857V33.3A13,13,0,0,1,12.983,20.319H25.966a20.009,20.009,0,0,0,11.72-4.856l5.072-5.072A28.111,28.111,0,0,1,60.6,3h43.277a28.111,28.111,0,0,1,17.839,7.392l5.072,5.072a20.042,20.042,0,0,0,11.72,4.856h12.983A13,13,0,0,1,164.471,33.3v86.555a13,13,0,0,1-12.983,12.983ZM12.983,28.974A4.329,4.329,0,0,0,8.655,33.3v86.555a4.329,4.329,0,0,0,4.328,4.328H151.471a4.329,4.329,0,0,0,4.328-4.328V33.3a4.329,4.329,0,0,0-4.328-4.328H138.488a28.111,28.111,0,0,1-17.839-7.392l-5.072-5.072a20.042,20.042,0,0,0-11.72-4.856H60.58A20.009,20.009,0,0,0,48.86,16.51l-5.072,5.072a28.091,28.091,0,0,1-17.839,7.392H12.966Z" transform="translate(0 0)"/></g></svg>