<svg xmlns="http://www.w3.org/2000/svg" xmlns:xlink="http://www.w3.org/1999/xlink" width="29.534" height="29.534" viewBox="0 0 29.534 29.534">
  <defs>
    <filter id="Ellipse_2" x="0" y="0" width="29.534" height="29.534" filterUnits="userSpaceOnUse">
      <feOffset dy="3" input="SourceAlpha"/>
      <feGaussianBlur stdDeviation="3" result="blur"/>
      <feFlood flood-opacity="0.161"/>
      <feComposite operator="in" in2="blur"/>
      <feComposite in="SourceGraphic"/>
    </filter>
  </defs>
  <g id="delete" transform="translate(9 6)">
    <g transform="matrix(1, 0, 0, 1, -9, -6)" filter="url(#Ellipse_2)">
      <circle id="Ellipse_2-2" data-name="Ellipse 2" cx="5.767" cy="5.767" r="5.767" transform="translate(9 6)" fill="#fff"/>
    </g>
    <path id="cross" d="M5.946,6.206,7.861,4.29a.17.17,0,0,0-.24-.24L5.706,5.966,3.79,4.05a.17.17,0,0,0-.24.24L5.466,6.206,3.55,8.121a.17.17,0,0,0,.24.24L5.706,6.446,7.622,8.361a.17.17,0,0,0,.24-.24L5.946,6.206Z" transform="translate(-0.108 -0.608)"/>
  </g>
</svg>
