<svg xmlns="http://www.w3.org/2000/svg" width="27.013" height="27.013" viewBox="0 0 27.013 27.013">
  <path id="pic_folder" d="M375.636,160H355.377A3.377,3.377,0,0,0,352,163.377v20.259a3.377,3.377,0,0,0,3.377,3.377h20.259a3.377,3.377,0,0,0,3.377-3.377V163.377A3.377,3.377,0,0,0,375.636,160Zm0,3.377v11.818h-8.441a1.688,1.688,0,0,0-1.511.934l-1.221,2.443h-9.086V163.377Zm-20.259,20.259v-1.688h10.13a1.688,1.688,0,0,0,1.509-.934l1.222-2.443h7.4v5.065Zm15.195-15.195-3.377,3.377-5.065-5.065-3.377,6.753h13.506Z" transform="translate(-352 -160)" fill-rule="evenodd"/>
</svg>
