<svg xmlns="http://www.w3.org/2000/svg" width="25" height="25.025" viewBox="0 0 25 25.025">
  <path id="profiles_2" d="M601,369.2a7.813,7.813,0,0,0-3.437-6.477,6.25,6.25,0,1,0-9.062-8.594,6.25,6.25,0,1,0-9.062,8.594A7.813,7.813,0,0,0,576,369.2c0,.938.42,3.633,4.939,4.448.55,1.459,2.275,3.364,7.561,3.364s7.011-1.9,7.561-3.364C600.58,372.829,601,370.134,601,369.2Zm-4.687-10.938a3.125,3.125,0,0,1-1.6,2.711,6.227,6.227,0,0,0-3.425-5.156,3.068,3.068,0,0,1,1.9-.68A3.134,3.134,0,0,1,596.313,358.259Zm-7.812,6.25a3.125,3.125,0,1,1,3.125-3.125A3.125,3.125,0,0,1,588.5,364.509Zm-4.687-9.375a3.067,3.067,0,0,1,1.9.683,6.223,6.223,0,0,0-3.425,5.156,3.113,3.113,0,0,1,1.52-5.839Zm-2.878,15.331c-1.781-.458-1.809-1.269-1.809-1.269a4.667,4.667,0,0,1,4.03-4.622,6.273,6.273,0,0,0,.981,1.27A7.83,7.83,0,0,0,580.934,370.465Zm7.566,3.419c-4.687,0-4.687-1.562-4.687-1.562a4.688,4.688,0,1,1,9.375,0S593.188,373.884,588.5,373.884Zm7.566-3.419a7.83,7.83,0,0,0-3.2-4.62,6.269,6.269,0,0,0,.981-1.27,4.667,4.667,0,0,1,4.03,4.622S597.847,370.007,596.066,370.465Z" transform="translate(-576 -351.984)" fill-rule="evenodd"/>
</svg>
