<svg xmlns="http://www.w3.org/2000/svg" width="56.733" height="17.414" viewBox="0 0 56.733 17.414">
  <g id="visa" transform="translate(-1150 -361)">
    <path id="Path_229" data-name="Path 229" d="M61.9,17.765,64.775.9h4.588L66.488,17.765Z" transform="translate(1108.099 360.391)" fill="#fff"/>
    <path id="Path_230" data-name="Path 230" d="M98.8.711A11.44,11.44,0,0,0,94.692,0c-4.555,0-7.754,2.294-7.754,5.557-.032,2.423,2.294,3.78,4.039,4.588,1.777.84,2.391,1.357,2.391,2.1,0,1.131-1.422,1.648-2.746,1.648a9.882,9.882,0,0,1-4.329-.872l-.646-.291L85,16.509a14.518,14.518,0,0,0,5.137.9c4.846,0,7.98-2.262,8.012-5.751.032-1.906-1.2-3.392-3.845-4.588-1.615-.775-2.585-1.292-2.585-2.1,0-.711.84-1.454,2.617-1.454a7.956,7.956,0,0,1,3.425.646l.42.194L98.8.711" transform="translate(1092.462 361)" fill="#fff"/>
    <path id="Path_231" data-name="Path 231" d="M137.394,1H133.84a2.3,2.3,0,0,0-2.423,1.389L124.6,17.833h4.814s.775-2.068.969-2.52h5.88c.129.582.549,2.52.549,2.52h4.265L137.394,1M131.74,11.856c.388-.969,1.842-4.717,1.842-4.717-.032.032.388-.969.614-1.615l.323,1.454s.872,4.039,1.066,4.879Z" transform="translate(1065.656 360.323)" fill="#fff"/>
    <path id="Path_232" data-name="Path 232" d="M26.24.9,21.717,12.4l-.485-2.326A13.038,13.038,0,0,0,14.9,3L19,17.765h4.879L31.119.9H26.24" transform="translate(1139.914 360.391)" fill="#fff"/>
    <path id="Path_233" data-name="Path 233" d="M7.463.9H.065L0,1.255c5.783,1.389,9.6,4.782,11.179,8.82L9.563,2.322A1.944,1.944,0,0,0,7.463.9" transform="translate(1150 360.391)" fill="#fff"/>
  </g>
</svg>
